PathFileType	4	(X/Y/Z)	RBDS026\RBDS026runT45.trc
DataRate	CameraRate	NumFrames	NumMarkers	Units	OrigDataRate	OrigDataStartFrame	OrigNumFrames
150.000000	150.000000	5	33	mm	150.000000	1125	4500
Frame#	Time	L.ASIS			L.Heel.Bottom			L.Heel.Lateral			L.Heel.Top			L.Iliac.Crest			L.MT1			L.MT5			L.PSIS			L.Shank.Bottom.Lateral			L.Shank.Bottom.Medial			L.Shank.Top.Lateral			L.Shank.Top.Medial			L.Thigh.Bottom.Lateral			L.Thigh.Bottom.Medial			L.Thigh.Top.Lateral			L.Thigh.Top.Medial			R.ASIS			R.ASY			R.Heel.Bottom			R.Heel.Lateral			R.Heel.Top			R.Iliac.Crest			R.MT1			R.MT5			R.PSIS			R.Shank.Bottom.Lateral			R.Shank.Bottom.Medial			R.Shank.Top.Lateral			R.Shank.Top.Medial			R.Thigh.Bottom.Lateral			R.Thigh.Bottom.Medial			R.Thigh.Top.Lateral			R.Thigh.Top.Medial			
		X1	Y1	Z1	X2	Y2	Z2	X3	Y3	Z3	X4	Y4	Z4	X5	Y5	Z5	X6	Y6	Z6	X7	Y7	Z7	X8	Y8	Z8	X9	Y9	Z9	X10	Y10	Z10	X11	Y11	Z11	X12	Y12	Z12	X13	Y13	Z13	X14	Y14	Z14	X15	Y15	Z15	X16	Y16	Z16	X17	Y17	Z17	X18	Y18	Z18	X19	Y19	Z19	X20	Y20	Z20	X21	Y21	Z21	X22	Y22	Z22	X23	Y23	Z23	X24	Y24	Z24	X25	Y25	Z25	X26	Y26	Z26	X27	Y27	Z27	X28	Y28	Z28	X29	Y29	Z29	X30	Y30	Z30	X31	Y31	Z31	X32	Y32	Z32	X33	Y33	Z33	

1126	7.500000000000001	2143.084233761587	1028.771293596456	873.9210185184535	1470.930721251162	266.3129175953493	985.0052821912836	1484.915536337929	250.4576505126396	928.1031935418393	1512.756329073667	282.6124314984837	968.2129731340518	2109.52408644696	1122.257049319087	832.8801716164567	1589.062686004483	78.24148372055591	960.6148203649061	1526.023813345678	113.6331689019532	874.3344461311783	1984.74594514693	1119.889436799224	941.9109927789125	1586.970983764911	305.2855342636209	880.2994794127977	1563.429947006437	328.6996983357644	918.6359187740193	1626.167978113332	372.7347108896303	857.421847535539	1602.054759945644	400.8420141741597	895.5927863444639	1869.50382527046	699.5055621938886	830.4126300005296	1823.086395878017	727.3025796462273	879.4904066418134	1910.968663309905	800.2441637797027	814.8989861465463	1870.907501559822	824.5884223158853	866.9414879837275	2147.89193599174	1077.410521146553	1103.972712282336	2104.475812647675	233.4916038590616	1071.739043159741	1939.684383590365	311.5197633669313	1014.260580963228	1967.750311344659	313.2659049374346	1065.306224979988	1976.85916301976	338.8432312010453	1015.439831142956	2076.147723820559	1158.728182323721	1147.780037267657	2111.162443003041	167.6419663107703	1034.709907660943	2065.736541665838	199.2237811741759	1131.295143065635	1983.346369923448	1125.726188824794	1041.564167423702	2076.714578087109	370.9544668351487	1095.404490109517	2045.351686902437	397.3766986547708	1057.858047254947	2114.280558023048	441.8514858057209	1110.557104742343	2083.853842090427	466.3851121410472	1073.278950904366	2281.288478193067	726.0667494130646	1144.797689953177	2222.770923561309	687.8059948936544	1128.590444956512	2217.332964637569	813.2461806807192	1167.910945794591	2161.844350368557	776.2403914684581	1153.119669104298	
1127	7.506666666666667	2143.323781763548	1032.732359956186	873.6769509596015	1461.151746721345	285.2717643913131	989.6284948264429	1472.115028066698	269.5789334248554	931.8109973231479	1503.58901770592	299.3202176313059	971.5190834079826	2110.561169565121	1127.322017508631	833.6476974653169	1567.597525284116	89.87242529183773	956.8668781781976	1503.769030886102	130.3956275200452	873.9463680379995	1986.003467266415	1125.075205980983	942.7697545742207	1574.446413989425	319.2096448693865	881.4106078681967	1552.579233787918	342.5547006459278	920.8638550267741	1615.033038959049	385.9469851145067	858.879024017729	1592.702232904042	413.9933230834538	898.1918422549868	1865.409962276594	706.1944635521934	831.2466019549994	1820.236179157878	734.023723808304	881.2976853662398	1907.848556872425	806.5192507975446	815.8984771648757	1869.039291806456	830.837071716105	868.8947406200892	2149.819175608987	1082.280171569052	1102.730976787589	2132.432242284066	223.3180400317909	1070.695718057853	1962.182078456784	289.2979963597819	1014.197787214039	1990.121895692361	293.0178063558253	1065.168196042949	1997.242006030352	319.3385215850031	1015.235010942312	2078.171566030695	1164.361654978281	1147.500908167457	2143.838228158084	158.26191519917	1033.549462410446	2096.646468635307	186.299376709294	1130.43756486499	1985.513569272766	1130.773646833752	1042.32607065653	2095.184816260333	358.2573817974113	1095.184038563714	2062.244812184996	382.7423073226037	1057.65921521499	2128.151556716768	431.3456038201223	1110.615451467892	2096.254521491545	454.0704651776356	1073.336474636062	2282.299486026136	729.0227746571463	1144.642052351826	2223.569796118788	690.8052466871596	1129.251578726216	2218.748372938618	816.5941736813417	1167.473515976956	2163.05715242688	779.7067010759993	1153.230517998795	
1128	7.513333333333334	2143.23056085884	1036.59299768859	873.3179946774851	1451.041782136782	304.3549646720771	994.2813974820197	1459.418142529309	289.1307159604473	935.6331139474523	1493.902542059409	316.3838871634609	975.151525122866	2110.545458604237	1132.189983382832	834.2829445646877	1546.54233968999	103.2172002683585	953.8466080144514	1482.539785019731	148.6506597498137	873.8403183033935	1986.881504452877	1129.883210084561	943.7556350310468	1562.297469390147	333.5957221450465	883.0418895240812	1542.136738267013	357.1282070100859	923.3753040411473	1604.709551917105	399.1825816004795	860.6498479045191	1584.249463405547	427.3947654133978	900.849014132546	1862.338979716264	711.7898023478471	831.8585528936094	1818.319916149657	739.3733756661882	882.8868588230216	1905.298797788214	811.9045384291663	816.743534723936	1867.547737691599	835.9721490650562	870.6195890785914	2151.293426373038	1086.31748374059	1101.736124278174	2160.119011148171	213.918705828685	1069.200661070777	1985.225586317057	267.8749169921956	1014.227590201035	2013.032060135956	273.4112553182203	1065.100845270738	2018.051257464234	300.4284323436827	1015.139745138438	2079.800749942648	1168.80979500967	1147.465171692688	2176.030765311634	150.0484573056881	1031.696939744534	2127.603955170988	174.2112496660414	1129.094870798628	1987.293354863843	1135.220099160689	1043.202721141308	2113.856647963732	345.6779511359038	1095.002479086257	2079.350092972589	368.2788013183688	1057.740216751281	2142.182279991431	420.5600464675326	1110.928224481361	2108.790720093523	441.5308505433962	1073.893686527758	2282.478763596454	730.8900321192493	1144.840222406368	2223.572739184143	692.8271480864776	1129.997473986311	2219.387817360583	818.9226663783455	1167.288769501589	2163.499644308853	782.2392639280167	1153.41049827588	
1129	7.52	2142.845082907666	1040.323756479828	872.8380232188098	1440.581950292413	323.7147128661977	998.6436567279434	1446.931712257885	309.0712246016632	939.3143180216471	1483.745067159173	333.8906577235446	978.8513375394589	2109.575140059466	1136.83223737619	834.7955618725374	1525.905709681541	118.1530621940305	951.9172290608583	1462.497927176163	168.0793736432509	874.1404740644842	1987.400400864659	1134.239395689324	944.8732748869502	1550.606882517105	348.3998074628538	885.0929936782178	1532.143974446634	372.3848934310441	926.0462850715414	1595.23159898566	412.3885107823423	862.6325925853293	1576.688784150261	440.9970420491377	903.4499822248707	1860.231268578823	716.2813839196147	832.2329552290602	1817.259948324646	743.3949554155736	884.2276058651059	1903.31655752073	816.3735776980949	817.4102044352542	1866.419481681448	840.017743306193	872.0766539832384	2152.349151999408	1089.513719208893	1101.01474319061	2187.422298664966	205.3105644464215	1067.267971890096	2008.670892783069	247.3220607920838	1014.335533036064	2036.366413670025	254.5167760741013	1065.084044884217	2039.163079990671	282.1761729366972	1015.163837839901	2081.040361325668	1172.046724169811	1147.707391070338	2207.574210477942	142.9911393600243	1029.159648259147	2158.471215140093	163.0112218274745	1127.253305553509	1988.680885248194	1139.02349942247	1044.201884661215	2132.642607027897	333.3025579007453	1094.856018140418	2096.56027050857	354.035733994487	1058.0863916549	2156.300801749293	409.590888849663	1111.480372926073	2121.373413469906	428.8206676709673	1074.933020137667	2281.839572860546	731.7158953636219	1145.386166862037	2222.773219620205	693.922861020421	1130.833749983457	2219.272506453861	820.2712369620069	1167.390444955928	2163.185418796249	783.8817716064671	1153.695957966524	
1130	7.526666666666667	2142.219299130685	1043.888942005643	872.236256334001	1429.920024826273	343.5116972626751	1002.440491382641	1434.84908764115	329.3578555847617	942.6328810417383	1473.319772100981	351.9125546172057	982.3620982020308	2107.773297348781	1141.212530742686	835.2061013851375	1505.743110296036	134.5208120081435	951.3752426550939	1443.771599312335	188.3428546296999	874.9745052168005	1987.590109541052	1138.067637334609	946.1161195593659	1539.51756037776	363.5375312092736	887.4319811375699	1522.703361047527	388.2380768082054	928.7272180503364	1586.664009406728	425.4925262458138	864.7039234335826	1570.040484066637	454.7231339665257	905.8635253527436	1859.018035848096	719.6962865788266	832.3712980593669	1816.973600820985	746.1732041283778	885.3034096854004	1901.897268798589	819.9255858503458	817.8859498457197	1865.653426654778	843.0247623435672	873.2441704891595	2153.040242462291	1091.8988307176	1100.566499836839	2214.222339649556	197.5313160052476	1064.930405101311	2032.386266139464	227.7096652561497	1014.499747482812	2060.0126440704	236.4097070184383	1065.091005662138	2060.460141339058	264.6440771925574	1015.310126137921	2081.912959641677	1174.116040302571	1148.227068691859	2238.304077192542	137.1027997351787	1025.976477349204	2189.098674824812	152.7822666008165	1124.919647535447	1989.685072431745	1142.150342934765	1045.315813332561	2151.435471866545	321.2329122333795	1094.738365326429	2113.763347137244	340.0706238786912	1058.666483315511	2170.410171289215	398.5527214496503	1112.244382559328	2133.908201847755	416.0060699446272	1076.406801742812	2280.398728411853	731.5603354369855	1146.259411947614	2221.166539788463	694.155341802999	1131.767511449369	2218.434642615719	820.6968294790066	1167.791583191699	2162.135512403586	784.6950276454426	1154.115797469164	
